<?xml version="1.0" encoding="utf-8"?>
<!-- Generator: Adobe Illustrator 29.5.0, SVG Export Plug-In . SVG Version: 9.03 Build 0)  -->
<svg version="1.0"
	 id="Layer_1" image-rendering="optimizeQuality" text-rendering="geometricPrecision" shape-rendering="geometricPrecision"
	 xmlns="http://www.w3.org/2000/svg" xmlns:xlink="http://www.w3.org/1999/xlink" x="0px" y="0px" viewBox="0 0 1583.57 628.47"
	 style="enable-background:new 0 0 1583.57 628.47;" xml:space="preserve">
<style type="text/css">
	.st0{fill-rule:evenodd;clip-rule:evenodd;fill:#2B2A29;stroke:#000000;stroke-width:40;stroke-miterlimit:10;}
	.st1{fill:none;stroke:#000000;stroke-width:40;stroke-miterlimit:10;}
</style>
<path class="st0" d="M668.98,117.4c0,4.22-0.04,9.31-0.08,15.09c13.81,16.32,53.62,39.68,60.5,44.58
	c46.49,33.24,78.73,66.59,130.48,95.69c17.43,9.83,31.92,16.52,49.32,27.54c35.98,22.89,120.05,87.29,159.1,44.86
	c7.32-7.96,14.73-18.83,22.77-27.74c76.34-84.9,194.8-147.91,286.87-215.34c10.19-7.44,32-23.05,40.84-35.86
	c-0.12-0.32-0.24-0.64-0.36-0.96c-37.54-13.29-398,24.88-458.55,29.89c-45.5,3.78-83.55,6.17-129.4,5.49
	c-24.36-0.32-135.85-2.15-161.53,15.88C668.98,116.81,668.98,117.08,668.98,117.4z M668.7,161.03
	c-0.6,110.97,1.51,343.71,49.84,374.92c7.16,4.62,43.63,0.48,53.46-0.16c191.94-12.5,387.18-56.72,578.16-58.71
	c32.36-0.36,63.13,0.76,95.01,3.54c-0.76-96.61-5.06-198.82-11.7-294.83c-1.43-20.58-4.26-63.45-9.12-94.06
	c-10.31,10.31-22.85,18.95-34.15,27.19c-98.95,72.48-224.42,136.53-301,233.61c-20.46,25.91-44.86,32.6-76.62,25.36
	c-49.24-11.19-102.06-55.33-148.83-79.37c-56.36-28.98-88.88-61.14-137.72-98C707.59,186.58,686.22,175.36,668.7,161.03z
	 M1435.97,54.35c4.54,2.07,7.05,7.12,5.77,12.1c-0.24,0.68-0.52,1.31-0.8,1.95c8.12,31.01,11.3,87.81,12.66,106.83
	c7.09,97.32,11.34,201.17,12.38,298.85c0.2,19.58,2.71,10.03-11.62,28.3c-38.85-3.86-75.71-5.06-114.76-4.3
	c-183.34,3.58-370.54,44.58-554.67,57.72c-16.04,1.15-59.23,6.09-72.68,0.28c-69.3-29.89-65.48-314.93-64.28-418.14
	c-10.19-18.31-4.02-35.39,24.12-45.58c53.7-19.42,162.88-9.83,225.45-13.53c106.04-6.21,214.39-19.03,320.62-27.98
	c28.86-2.43,196.16-19.62,214.63-1.11C1433.9,50.85,1434.94,52.44,1435.97,54.35z"/>
<path class="st1" d="M658.55,117.4c0,61.1-10.87,434.03,68.42,431.12c242.13-8.84,511.72-79.57,728.46-56.48
	c1.75,0.2-8.04-414.68-29.73-434.62c-25.32-23.33-460.85,33.2-564.94,33.2c-58.95,0-314.89-13.49-155.4,83.03
	c48.04,29.06,93.22,81.44,170.28,119.17c52.66,25.79,155.44,121.08,205.15,53.54c86.14-117.02,339.29-237.55,350.88-282.49"/>
<path class="st0" d="M480.67,283.86c-123.91-11.38-185.21-7.01-308.01,20.02c-23.13,5.09-46.21,10.31-69.34,15.48
	c-5.61,1.23-11.19-2.31-12.46-7.92c-1.23-5.61,2.31-11.19,7.92-12.46c23.13-5.13,46.25-10.39,69.42-15.48
	c124.87-27.46,188.35-31.96,314.41-20.38c5.73,0.52,9.95,5.61,9.39,11.34C491.49,280.2,486.4,284.42,480.67,283.86z"/>
<path class="st1" d="M481.66,273.48c-166.26-15.56-216.73-0.8-380.61,35.7"/>
<path class="st0" d="M531.34,396.19c-85.1-31.53-159.73,1.83-245.47,6.65c-5.77,0.28-10.63-4.22-10.87-9.95
	c-0.28-5.73,4.18-10.63,9.95-10.87c90.95-5.09,161.57-39.49,254.07-5.21c5.33,2.11,7.96,8.16,5.85,13.53
	C542.76,395.67,536.67,398.3,531.34,396.19z"/>
<path class="st1" d="M535.16,386.48c-84.74-33.56-171,2.51-249.77,5.97"/>
<path class="st0" d="M564.89,492.04c-178.84,0.28-241.09,17.28-403.82,90.55l-8.16,3.7c-5.25,2.35-11.42,0.04-13.77-5.21
	c-2.39-5.25-0.08-11.42,5.17-13.81l8.2-3.7c165.39-74.47,230.51-92.11,412.37-92.35c5.77,0,10.43,4.66,10.43,10.43
	C575.32,487.38,570.67,492.04,564.89,492.04z"/>
<path class="st1" d="M564.89,481.65c-181.03,0-239.78,15.25-416.27,95.13"/>
</svg>
